<svg version="1.1" xmlns="http://www.w3.org/2000/svg" xmlns:xlink="http://www.w3.org/1999/xlink" width="32" height="32" viewBox="0,0,256,256"><g fill="#000000" fill-rule="nonzero" stroke="none" stroke-width="1" stroke-linecap="butt" stroke-linejoin="miter" stroke-miterlimit="10" stroke-dasharray="" stroke-dashoffset="0" font-family="none" font-weight="none" font-size="none" text-anchor="none" style="mix-blend-mode: normal"><g transform="scale(30.23503,30.23503)"><path d="M1.58802,0.52917c-0.59001,0 -1.05885,0.47711 -1.05885,1.05885v3.70313c0,0.58174 0.46781,1.05833 1.05885,1.05833h0.52865v0.52968c0,0.58174 0.46781,1.05833 1.05885,1.05833h3.70313c0.59104,0 1.05885,-0.47659 1.05885,-1.05833v-3.70313c0,-0.58174 -0.46884,-1.05885 -1.05885,-1.05885h-0.52865v-0.52917c0,-0.58174 -0.46884,-1.05885 -1.05885,-1.05885zM1.58802,1.05885h3.70313c0.29773,0 0.52917,0.2366 0.52917,0.52917v3.70313c0,0.29773 -0.23763,0.52917 -0.52917,0.52917h-3.70313c-0.29153,0 -0.52917,-0.23143 -0.52917,-0.52917v-3.70313c0,-0.29257 0.23143,-0.52917 0.52917,-0.52917zM6.35,2.64687h0.52865c0.29774,0 0.52917,0.2366 0.52917,0.52917v3.70313c0,0.29773 -0.23763,0.52917 -0.52917,0.52917h-3.70313c-0.29153,0 -0.52917,-0.23143 -0.52917,-0.52917v-0.52968h2.6448c0.59104,0 1.05885,-0.47659 1.05885,-1.05833z"></path></g></g></svg>