<svg version="1.1" xmlns="http://www.w3.org/2000/svg" xmlns:xlink="http://www.w3.org/1999/xlink" width="512px" height="512px" viewBox="0,0,256,256"><g fill="#50575e" fill-rule="nonzero" stroke="none" stroke-width="1" stroke-linecap="butt" stroke-linejoin="miter" stroke-miterlimit="10" stroke-dasharray="" stroke-dashoffset="0" font-family="none" font-weight="none" font-size="none" text-anchor="none" style="mix-blend-mode: normal"><g transform="scale(0.5,0.5)"><path d="M255.70703,51.00391c-5.40659,0.15846 -9.70724,4.58718 -9.70703,9.99609v255.95117l-61.85938,-58.15039c-4.03555,-3.6943 -10.2907,-3.45986 -14.0384,0.52615c-3.7477,3.98601 -3.59656,10.24373 0.33919,14.04416v-0.00195l78.70898,73.99414c3.84939,3.61894 9.84983,3.61894 13.69922,0l78.70898,-73.99414c2.64674,-2.43685 3.7806,-6.10754 2.96929,-9.61257c-0.81131,-3.50503 -3.44274,-6.30417 -6.89103,-7.3302c-3.44829,-1.02603 -7.18195,-0.12082 -9.77747,2.37051l-61.85938,58.15429v-255.95117c0.0001,-2.70304 -1.09405,-5.29099 -3.03314,-7.17415c-1.9391,-1.88317 -4.55795,-2.90113 -7.25983,-2.82194zM111.36719,125.30078c-27.60122,0.03141 -49.96859,22.39878 -50,50v235.69922c0.03141,27.60122 22.39879,49.96859 50,50h289.26562c27.60122,-0.03141 49.96859,-22.39878 50,-50v-235.69922c-0.03086,-27.60144 -22.39856,-49.96914 -50,-50h-50.70898c-5.52285,0 -10,4.47715 -10,10c0,5.52285 4.47715,10 10,10h50.70898c16.56078,0.01874 29.98126,13.43922 30,30v235.69922c-0.01874,16.56078 -13.43922,29.98126 -30,30h-289.26562c-16.56078,-0.01874 -29.98126,-13.43922 -30,-30v-235.69922c0.01874,-16.56078 13.43923,-29.98126 30,-30h50.70898c5.52285,0 10,-4.47715 10,-10c0,-5.52285 -4.47715,-10 -10,-10z"></path></g></g></svg>